<?xml version="1.0" encoding="UTF-8"?>
<svg xmlns="http://www.w3.org/2000/svg" viewBox="0 0 32 32" width="32" height="32" shape-rendering="crispEdges">
  <rect width="32" height="32" fill="#fff8ee"/>
  <polygon fill="#d4a574" points="6,4 9,4 12,10 8,11"/>
  <polygon fill="#d4a574" points="26,4 23,4 20,10 24,11"/>
  <polygon fill="#f4c0a8" points="8,8 9,8 10,10 8.5,10.5"/>
  <polygon fill="#f4c0a8" points="24,8 23,8 22,10 23.5,10.5"/>
  <rect fill="#d4a574" x="8" y="8" width="16" height="18" rx="3"/>
  <rect fill="#b88858" x="8" y="22" width="16" height="4" rx="2"/>
  <rect fill="#2a1f17" x="11" y="14" width="2" height="3" rx="0.5"/>
  <rect fill="#2a1f17" x="19" y="14" width="2" height="3" rx="0.5"/>
  <rect fill="#2a1f17" x="15" y="20" width="2" height="1"/>
  <circle fill="#f08a96" cx="11" cy="20" r="1.2" opacity="0.55"/>
  <circle fill="#f08a96" cx="21" cy="20" r="1.2" opacity="0.55"/>
</svg>
